<?xml version="1.0" encoding="utf-8"?>
<!-- Generator: Adobe Illustrator 25.4.1, SVG Export Plug-In . SVG Version: 6.00 Build 0)  -->
<svg version="1.1" id="Layer_1" xmlns="http://www.w3.org/2000/svg" xmlns:xlink="http://www.w3.org/1999/xlink" x="0px" y="0px"
	 viewBox="0 0 2207.6 206.1" style="enable-background:new 0 0 2207.6 206.1;" xml:space="preserve">
<style type="text/css">
	.st0{fill:#FF9900;}
	.st1{fill:#FFFFFF;}
	.st2{fill:#2D251E;}
	.st3{clip-path:url(#SVGID_00000151540140772426532650000007137040472640095153_);}
	.st4{clip-path:url(#SVGID_00000058583815236086404410000007588202752131824029_);}
	.st5{clip-path:url(#SVGID_00000027563249896506189330000014819153261292673213_);}
	.st6{clip-path:url(#SVGID_00000041253617001981058850000012341959453493930161_);}
	.st7{opacity:0.4;fill:#FF9900;}
</style>
<g>
	<path class="st2" d="M49,193.3v-2.1c8.6-1.6,15.1-5,19.8-10.3c4.6-5.3,7.6-13.2,9-23.7c2.4-17.6,3.7-36.5,3.7-56.6
		c0-34-0.4-58.9-1.3-74.6c-44,0-69.8,10.1-77.5,30.4H0L8.9,5.5h2.6c1.2,1.2,11.8,2.3,31.8,3.1c20,0.9,37.8,1.3,53.6,1.3
		c18.7,0,38.8-0.4,60.4-1.3c21.6-0.9,33-2.1,34.4-3.7h2.6v51.3h-2.1c-3.1-10.8-12-18.6-26.7-23.3c-14.7-4.7-32-6.9-52.1-6.6
		c-1.2,22.9-1.8,47.6-1.8,74.1c0,18.2,1.2,37,3.7,56.6c1.2,9.4,4.4,17.1,9.4,22.9c5.1,5.9,11.5,9.6,19.4,11.1v2.1
		c-26.2-0.9-41.9-1.3-47.1-1.3C91.1,192,75.2,192.4,49,193.3"/>
	<path class="st2" d="M277.9,89.8c12.9,0.5,32.3,0.8,58.1,0.8c20.1,0,40.2-0.3,60.2-0.8c-0.4-20.1-1.4-35.6-3.1-46.6
		c-3.3-20.3-13.1-31.7-29.3-34.3V6.8c17.8,1,33.7,1.6,47.7,1.6c21.1,0,36.9-0.5,47.4-1.6v2.1c-7,1.9-13.1,6-18.5,12.3
		c-5.3,6.3-8.8,13.6-10.3,22c-2.4,13.8-3.7,32.6-3.7,56.3c0,20.8,1.2,39.4,3.7,55.8c2.6,17.3,12.2,28.6,28.8,34v2.1
		c-14.8-0.9-30.6-1.3-47.4-1.3c-7.3,0-23.2,0.4-47.7,1.3v-2.1c16.4-3.3,26.2-14.7,29.3-34c2.1-13.3,3.1-29.8,3.1-49.5
		c-19.7-0.5-39.4-0.8-58.9-0.8c-5.9,0-12.2,0-18.9,0.1c-6.6,0.1-14,0.2-22,0.4c-8,0.2-14.2,0.3-18.6,0.3c0,16.8,1.2,33.3,3.7,49.5
		c2.6,17.1,12.2,28.5,28.8,34v2.1c-15.2-0.9-30.9-1.3-47.1-1.3c-7.5,0-23.5,0.4-47.9,1.3v-2.1c16.1-3.3,25.7-14.7,28.8-34
		c2.4-14.3,3.7-32.9,3.7-55.8c0-22-1.2-40.8-3.7-56.3c-3-20.3-12.6-31.7-28.8-34.3V6.8c18.2,1,34.1,1.6,47.9,1.6
		c21,0,36.7-0.5,47.1-1.6v2.1c-6.8,1.9-12.9,6-18.3,12.3c-5.4,6.3-8.9,13.6-10.5,22C279.5,55.2,278.2,70.8,277.9,89.8"/>
	<path class="st2" d="M474.1,192.5v-2.1c7.5-1.4,13.8-4.9,19-10.5c5.1-5.6,8.4-13.4,9.8-23.6c2.4-13.3,3.7-32,3.7-56
		c0-21.8-1.2-40.5-3.7-56.1c-3-19.9-12.6-31.3-28.8-34.3V7.8h88.3c28.1,0,47.5-0.7,58.1-2.1c-1.2,12.8-1.2,26.9,0,42.4h-2.1
		c-2.6-11.2-7.2-18.4-13.9-21.7c-6.6-3.3-19.1-5-37.5-5L540.3,22c-2.3,19-3.4,41.8-3.4,68.4h23.3c15.2,0,25.7-0.9,31.4-2.6
		c5.8-1.7,9.9-5.4,12.3-11h2.1c-1.7,17.6-1.7,33.8,0,48.5H604c-3.5-13.6-18.7-20.4-45.6-20.4h-21.5c0,20.1,0.7,37.5,2.1,52.1
		c0.7,9.3,2.7,15.2,6,17.9c3.3,2.7,11.3,4.1,23.8,4.1c26.5,0.2,46.7-9.1,60.5-27.8h2.6c-6.1,12.8-10.6,26.5-13.4,41.4H474.1z"/>
	<path class="st2" d="M838.9,94.1c21.6,0,38.5,5,50.7,14.9c12.1,9.9,18.2,20.8,18.2,32.5c0,14.7-6.8,26.8-20.3,36.4
		c-13.5,9.6-28.5,14.3-44.9,14.1c-5.9,0-15.2-0.4-27.6-1c-12.5-0.7-22.1-1-28.9-1c-10.7,0-26.5,0.5-47.4,1.6v-1.8
		c16.1-3.3,25.7-14.8,28.8-34.3c2.4-14.3,3.7-32.9,3.7-55.8c0-22-1.2-40.8-3.7-56.3c-3-20.3-12.6-31.7-28.8-34.3V6.9
		C754,8,768,8.5,780.8,8.5c5.2,0,13.6-0.4,25-1.2c11.4-0.8,19.7-1.2,24.8-1.2c17.1,0,31.7,4,43.7,12c12,8,18.3,19.2,18.9,33.5
		c0.3,9.3-4,18.2-13,26.8C871.2,87.2,857.4,92.4,838.9,94.1 M822.1,20.8c-6.3,0-12,0.4-17.3,1.3c-2.4,19.6-3.7,41.6-3.7,66h7.3
		c17.1,0,30.5-3.1,40.2-9.4c9.7-6.3,14.5-15,14.5-26.2c0-8.4-3.7-15.8-11.1-22.1C844.7,24,834.7,20.8,822.1,20.8 M822.7,102.5h-21.5
		c0,30.4,0.6,50.5,1.8,60.2c0.9,6.6,2.6,10.9,5.1,12.7c2.5,1.8,6.9,2.8,13,2.8c16.1,0,29.2-3.3,39.3-9.8
		c10.1-6.5,15.2-16.4,15.2-29.5c0-9.3-4.7-17.6-14-25.1C852.2,106.3,839.2,102.5,822.7,102.5"/>
	<path class="st2" d="M1044.2,112.3c-17.8-40-27.6-64.9-29.3-74.6l-29.3,75.2L979,128c-6.3,16.1-11.1,28.9-14.4,38.5
		c-2.6,7-2.9,12.2-0.8,15.7c2.1,3.5,7.5,5.9,16.2,7.1v2.1c-25.3-1.4-50-1.4-74.1,0v-2.1c15.9-1,29.2-12.3,40.1-33.8
		c19-37.4,40.5-87,64.4-148.8h18.9c30.7,67.8,54.1,117.3,70.2,148.8c5.2,10.6,10.6,18.8,16,24.4c5.4,5.6,12.5,8.7,21.2,9.4v2.1
		c-3.8,0-10.4-0.3-19.6-0.8c-9.3-0.5-16.5-0.8-21.7-0.8c-4.7,0-11.7,0.3-21,0.8c-9.3,0.5-15.9,0.8-19.9,0.8v-2.1
		c7-1,11.3-3.7,12.8-8c1.6-4.3,0.9-10-2.1-17.2c-1.7-5.2-6.5-17.5-14.4-36.7"/>
	<path class="st2" d="M1295.4,191.4h-148.5v-2.1c8-1.7,14.5-5.7,19.4-11.9c4.9-6.2,8-13.6,9.4-22.1c2.4-15.2,3.7-34,3.7-56.6
		c0-19.9-1.2-38.4-3.7-55.5c-1.4-9.4-4.2-16.9-8.4-22.5c-4.2-5.6-11-9.5-20.4-11.8V6.8c10.6,0.7,26.6,1,47.9,1
		c23.7,0,40.8-0.3,51.1-1v2.1c-8.4,1-15.5,4.6-21.3,10.6c-5.9,6-9.6,13.9-11.4,23.7c-2.4,14-3.7,32.5-3.7,55.5
		c0,24.5,1,45.2,3.1,62.3c0.9,7,4.1,11.6,9.6,13.8c5.5,2.2,13.4,3.3,23.7,3.3c26.9,0,46.9-9.3,60-28h2.9
		C1302.7,162.8,1298.2,176.6,1295.4,191.4"/>
	<path class="st2" d="M1553.1,191.4v-2.1c8.9-2.3,15.5-5.9,19.8-11c4.3-5.1,7.3-12.7,9-22.8c1.7-10.3,2.8-29.2,3.1-56.8
		c0.2-9.1,0.2-18.7,0-28.9c-0.2-10.2-0.4-21.6-0.8-34.1c-0.4-12.5-0.6-22.1-0.8-28.9h29.3c5.9,6.3,17,17.3,33.2,33.2
		s30.1,29.4,41.7,40.7c31.3,28.8,56.1,53,74.4,72.7c0.3-54.3-0.4-91-2.1-110.3c-1.7-19.6-13.1-31-34-34.2V6.8
		c22,1,36.8,1.6,44.5,1.6c14.8,0,28.5-0.5,41.1-1.6v2.1c-9.4,2.4-16.3,6.5-20.7,12c-4.4,5.6-7.1,13-8.1,22.3
		c-1.4,12.2-2.1,35.1-2.1,68.6c0,28.6,0.8,55.2,2.4,79.6h-28.3c-38.3-38.4-66.6-65.9-84.7-82.3c-12.5-12.2-25.8-25-39.7-38.6
		c-14-13.6-23.3-23.3-28.1-29.2c0,25.7,0.2,44.9,0.5,57.6c0.2,4,0.3,10,0.4,17.9c0.1,7.9,0.3,15,0.5,21.1c0.3,6.1,0.8,12,1.7,17.5
		c2.8,18.9,15.5,30.1,38.2,33.8v2.1c-15.7-0.5-31.6-0.8-47.7-0.8C1576.7,190.6,1562.4,190.9,1553.1,191.4"/>
	<path class="st2" d="M1833.4,98.3c0-11.7,3-23.2,9-34.6c6-11.3,14.4-21.7,25-30.9c10.6-9.3,24.3-16.7,40.9-22.4
		c16.6-5.7,34.6-8.5,54-8.5c17.3,0,37.4,2.8,60.2,8.4c-2.6,15.7-3.8,32-3.4,48.7h-2.1c-2.8-15.7-9.7-26.7-20.8-33
		c-11.1-6.3-25.6-9.4-43.6-9.4c-22.7,0-42,8.3-58,24.9c-16,16.6-24,35.5-24,56.8c0,22.4,8.9,42,26.8,59.1c17.9,17,38,25.5,60.4,25.5
		c38.2,0,61.6-14.3,70.2-43h2.6c-5.2,17.6-8.4,33.1-9.4,46.4c-22.7,6.3-46.4,9.6-71,10c-32.8,0.3-60.5-8.9-83-27.9
		C1844.6,149.4,1833.4,126.1,1833.4,98.3"/>
	<path class="st2" d="M2049.7,192.5v-2.1c7.5-1.4,13.8-4.9,19-10.5c5.1-5.6,8.4-13.4,9.8-23.6c2.4-13.3,3.7-32,3.7-56
		c0-21.8-1.2-40.5-3.7-56.1c-3-19.9-12.6-31.3-28.8-34.3V7.8h88.3c28.1,0,47.5-0.7,58.1-2.1c-1.2,12.8-1.2,26.9,0,42.4h-2.1
		c-2.6-11.2-7.2-18.4-13.9-21.7c-6.6-3.3-19.1-5-37.5-5L2116,22c-2.3,19-3.4,41.8-3.4,68.4h23.3c15.2,0,25.7-0.9,31.4-2.6
		c5.8-1.7,9.9-5.4,12.3-11h2.1c-1.7,17.6-1.7,33.8,0,48.5h-2.1c-3.5-13.6-18.7-20.4-45.6-20.4h-21.5c0,20.1,0.7,37.5,2.1,52.1
		c0.7,9.3,2.7,15.2,6,17.9c3.3,2.7,11.3,4.1,23.8,4.1c26.5,0.2,46.7-9.1,60.5-27.8h2.6c-6.1,12.8-10.6,26.5-13.4,41.4H2049.7z"/>
	<polygon class="st2" points="1017,116 994.5,161.1 1015.7,206.1 1038.1,161.1 	"/>
	<path class="st2" d="M1447.1,112.3c-17.8-40-27.6-64.9-29.3-74.6l-29.3,75.2l-6.5,15.2c-6.3,16.1-11.1,28.9-14.4,38.5
		c-2.6,7-2.9,12.2-0.8,15.7c2.1,3.5,7.5,5.9,16.2,7.1v2.1c-25.3-1.4-50-1.4-74.1,0v-2.1c15.9-1,29.2-12.3,40.1-33.8
		c19-37.4,40.5-87,64.4-148.8h18.9c30.7,67.8,54.1,117.3,70.2,148.8c5.2,10.6,10.6,18.8,16,24.4c5.4,5.6,12.5,8.7,21.2,9.4v2.1
		c-3.8,0-10.4-0.3-19.6-0.8c-9.3-0.5-16.5-0.8-21.7-0.8c-4.7,0-11.7,0.3-21,0.8c-9.3,0.5-15.9,0.8-19.9,0.8v-2.1
		c7-1,11.3-3.7,12.8-8c1.6-4.3,0.9-10-2.1-17.2c-1.7-5.2-6.5-17.5-14.4-36.7"/>
	<polygon class="st2" points="1419.8,116 1397.3,161.1 1418.5,206.1 1440.9,161.1 	"/>
	<polygon class="st2" points="1953.5,54 1931.1,99.1 1952.3,144.2 1974.7,99.1 	"/>
</g>
</svg>
