<?xml version="1.0" encoding="utf-8"?>
<!-- Generator: Adobe Illustrator 25.4.1, SVG Export Plug-In . SVG Version: 6.00 Build 0)  -->
<svg version="1.1" id="Layer_1" xmlns="http://www.w3.org/2000/svg" xmlns:xlink="http://www.w3.org/1999/xlink" x="0px" y="0px"
	 viewBox="0 0 1044 1039.4" style="enable-background:new 0 0 1044 1039.4;" xml:space="preserve">
<style type="text/css">
	.st0{fill:#FF9900;}
	.st1{fill:#FFFFFF;}
	.st2{fill:#2D251E;}
	.st3{clip-path:url(#SVGID_00000093174098701856239870000001769568831527820717_);}
	.st4{clip-path:url(#SVGID_00000048468997685988851100000008686150655208567446_);}
	.st5{clip-path:url(#SVGID_00000009557354182175570570000011570229022483322540_);}
	.st6{clip-path:url(#SVGID_00000164477036721660253810000007346472926818394264_);}
	.st7{opacity:0.4;fill:#FF9900;}
</style>
<g>
	<g>
		<path class="st0" d="M598.3,636.4c-23.1,14.8-49.9,22.6-77.5,22.6c-39.4,0-76.8-16.1-103.8-44.3c0,0,0-0.1,0-0.1
			c-12.2-12.7-22.1-27.7-28.9-44.3c0,0-0.1,0.1-0.1,0.1c-0.3-0.7-0.6-1.4-0.8-2.1c-6.7-16.9-10.2-34.8-10.2-53.2
			c0-27.6,7.8-54.4,22.6-77.5c6.1-9.5,3.3-22.2-6.2-28.3c-9.5-6.1-22.2-3.3-28.3,6.2c-3,4.7-5.8,9.6-8.4,14.5
			c-9-3.5-41.3-15.3-45.5-5.5c-3.8,8.7,22.9,23.1,35.3,29.3c-4.6,13-7.7,26.5-9.3,40.3h-2.6c0,0-74.5,1.1-74.5,20.9
			c0,17,60.2,20.3,77,20.9c1.3,11.9,3.8,23.7,7.5,35.1c-8.9,3.9-40,18.4-36.1,28.3c3.5,8.8,32.5,0.2,45.7-4.2
			c6,12.5,13.3,24.2,22,35.1l-1.8,1.8c0,0-51.9,53.5-37.9,67.4c12,12,57-28.2,69.2-39.6c9.4,7.5,19.5,14,30.1,19.5
			c-3.5,9-15.3,41.3-5.5,45.6c8.7,3.8,23.1-22.9,29.3-35.3c13,4.6,26.5,7.7,40.3,9.3v2.5c0,0,1.1,74.5,20.9,74.5
			c17,0,20.3-60.2,20.9-77c11.9-1.3,23.7-3.9,35.1-7.5c3.9,8.8,18.4,40,28.3,36.1c8.8-3.5,0.2-32.5-4.2-45.6
			c6.7-3.2,13.3-6.8,19.6-10.9c9.5-6.1,12.3-18.8,6.2-28.3C620.5,633,607.8,630.3,598.3,636.4"/>
	</g>
</g>
<g>
	<g>
		<path class="st0" d="M707.1,536.1c0,0,74.5-1.1,74.5-20.9c0-17-60.3-20.3-77-20.9c-1.4-11.9-3.9-23.7-7.5-35.1
			c8.8-3.9,40-18.4,36.1-28.3c-3.5-8.8-32.5-0.2-45.6,4.2c-1.7-3.5-3.5-7-5.4-10.3c0,0,0,0,0,0c-4.9-8.7-10.5-17-16.6-24.7l1.8-1.8
			c0,0,51.8-53.4,37.9-67.4c-12-12-57.1,28.3-69.3,39.7c-9.4-7.5-19.5-14-30.1-19.5c3.5-8.9,15.3-41.4,5.5-45.6
			c-8.7-3.8-23.2,22.9-29.3,35.3c-12.9-4.6-26.5-7.7-40.3-9.3v-2.6c0,0-1.1-74.5-20.9-74.5c-17,0-20.3,60.2-20.9,77
			c-11.9,1.3-23.7,3.8-35.1,7.5c-3.9-8.8-18.4-40-28.3-36.1c-8.8,3.5-0.2,32.5,4.2,45.6c-6.2,3-12.2,6.2-18,9.9
			c-9.6,6-12.5,18.7-6.5,28.3c6,9.6,18.7,12.5,28.3,6.5c22.8-14.3,49.2-21.8,76.2-21.8c50.2,0,96.8,26.3,122.9,69c0,0.1,0,0.1,0,0.2
			c12.3,20.1,19.7,43.5,20.7,68.6c0-0.1,0.1-0.1,0.1-0.2c0.1,2.1,0.1,4.1,0.1,6.2c0,27.1-7.5,53.4-21.8,76.2
			c-6,9.6-3.1,22.3,6.5,28.3c3.4,2.1,7.1,3.1,10.9,3.1c6.8,0,13.5-3.4,17.4-9.6c2.6-4.2,5.1-8.5,7.3-12.9c9,3.5,41.3,15.3,45.5,5.5
			c3.8-8.7-22.9-23.1-35.3-29.3c4.6-13,7.7-26.5,9.2-40.3H707.1z"/>
	</g>
</g>
<g>
	<g>
		<path class="st0" d="M465.2,548.2L512,637c1.6,3.4,5,5.6,8.8,5.6c3.8,0,7.2-2.2,8.8-5.6l46.8-88.7c0.9-1.9,1.1-4,0.7-6
			c0.4-1.7,0.3-3.6-0.4-5.3L530,394c-1.4-3.8-5-6.4-9.1-6.4c-4.1,0-7.7,2.6-9.1,6.4l-46.8,142.9c-0.6,1.7-0.7,3.5-0.4,5.3
			C464.1,544.2,464.3,546.3,465.2,548.2 M540.6,532.4l-18.5,40.2c-0.2,0.5-0.7,0.8-1.3,0.8c-0.6,0-1.1-0.3-1.3-0.8L501,532.4
			c-0.2-0.3-0.2-0.7,0-1.1l18.5-64.4c0.2-0.6,0.7-0.9,1.3-0.9c0.6,0,1.1,0.4,1.3,0.9l18.5,64.4C540.8,531.7,540.8,532.1,540.6,532.4
			"/>
	</g>
</g>
<g>
	<g>
		<path class="st0" d="M519.1,1039.4C519.1,1039.4,519,1039.4,519.1,1039.4c-5.5,0-10.6-2.5-13.9-6.8L115.5,530.5
			c-4.9-6.3-4.9-15.2,0-21.5L505.2,6.8C508.5,2.5,513.6,0,519,0c0,0,0,0,0.1,0c5.4,0,10.5,2.5,13.8,6.7l395.5,502.2
			c5,6.4,5,15.4,0,21.7l-395.5,502.2C529.6,1037,524.5,1039.4,519.1,1039.4z M151.6,519.7l367.6,473.7l373-473.7l-373-473.7
			L151.6,519.7z"/>
	</g>
</g>
</svg>
