<?xml version="1.0" encoding="utf-8"?>
<!-- Generator: Adobe Illustrator 25.4.1, SVG Export Plug-In . SVG Version: 6.00 Build 0)  -->
<svg version="1.1" id="Layer_1" xmlns="http://www.w3.org/2000/svg" xmlns:xlink="http://www.w3.org/1999/xlink" x="0px" y="0px"
	 viewBox="0 0 1044 1039.4" style="enable-background:new 0 0 1044 1039.4;" xml:space="preserve">
<style type="text/css">
	.st0{fill:#FF9900;}
	.st1{fill:#FFFFFF;}
	.st2{fill:#2D251E;}
	.st3{clip-path:url(#SVGID_00000171682637844172880940000017746837136430784419_);}
	.st4{clip-path:url(#SVGID_00000142148883198754894260000001540012595760254355_);}
	.st5{clip-path:url(#SVGID_00000015350629241029481860000017758331488624793275_);}
	.st6{clip-path:url(#SVGID_00000123402217579159314200000001736088994529839017_);}
	.st7{opacity:0.4;fill:#FF9900;}
</style>
<path class="st0" d="M676.4,761.4c-46,29.5-99.4,45.1-154.4,45.1c-78.5,0-153-32-207-88.4c0-0.1,0-0.2,0-0.3
	c-24.3-25.4-44-55.3-57.7-88.2c-0.1,0.1-0.1,0.2-0.2,0.3c-0.6-1.4-1.1-2.8-1.7-4.2c-13.4-33.7-20.3-69.4-20.3-106.1
	c0-55,15.6-108.4,45.1-154.4c12.2-19,6.6-44.3-12.4-56.5c-19-12.2-44.3-6.6-56.5,12.4c-6,9.4-11.5,19.1-16.7,28.9
	c-17.9-7-82.4-30.4-90.8-11c-7.5,17.4,45.6,46.1,70.3,58.4c-9.1,26-15.3,52.9-18.4,80.4h-5.1c0,0-148.4,2.3-148.4,41.7
	c0,33.9,120,40.5,153.5,41.7c2.7,23.8,7.6,47.2,14.9,70c-17.7,7.8-79.7,36.7-71.9,56.4c7,17.6,64.9,0.4,91-8.5
	c11.9,24.8,26.6,48.2,43.8,69.9l-3.6,3.6c0,0-103.4,106.6-75.5,134.4c24,24,113.6-56.2,138-79c18.8,14.9,38.9,27.9,60,38.9
	c-7,17.9-30.4,82.4-11,90.8c17.4,7.5,46.1-45.6,58.4-70.3c25.9,9.1,52.8,15.3,80.4,18.5v5.1c0,0,2.3,148.4,41.7,148.4
	c33.9,0,40.5-120.1,41.7-153.5c23.8-2.7,47.2-7.7,69.9-14.9c7.8,17.6,36.7,79.8,56.4,72c17.6-7,0.4-64.8-8.5-91
	c13.4-6.4,26.5-13.6,39.1-21.7c19-12.2,24.6-37.5,12.4-56.5C720.7,754.8,695.4,749.3,676.4,761.4"/>
<path class="st0" d="M893.3,561.5c0,0,148.4-2.3,148.4-41.7c0-33.9-120.2-40.5-153.5-41.7c-2.7-23.8-7.7-47.2-14.9-69.9
	c17.6-7.7,79.8-36.8,72-56.4c-7-17.6-64.8-0.4-91,8.5c-3.3-7-6.9-13.9-10.7-20.6c0,0,0,0,0,0c-9.8-17.4-20.9-33.9-33.1-49.2l3.6-3.6
	c0,0,103.4-106.6,75.5-134.4c-24-24-113.8,56.4-138.1,79.1c-18.7-14.9-38.8-27.9-59.9-38.9c6.9-17.8,30.5-82.5,11.1-90.9
	c-17.4-7.5-46.2,45.7-58.4,70.4c-25.8-9.1-52.8-15.3-80.4-18.5v-5.1c0,0-2.3-148.4-41.7-148.4c-33.9,0-40.5,120.1-41.7,153.5
	c-23.8,2.7-47.2,7.7-69.9,14.9c-7.8-17.6-36.8-79.8-56.4-72c-17.6,7-0.4,64.8,8.5,91c-12.3,5.9-24.2,12.4-35.9,19.7
	c-19.1,12-24.9,37.2-13,56.4c12,19.1,37.2,24.9,56.4,13c45.5-28.4,98-43.5,151.9-43.5c100.1,0,193,52.5,245,137.6c0,0.1,0,0.3,0,0.4
	c24.4,40.2,39.3,86.8,41.3,136.7c0.1-0.1,0.2-0.2,0.2-0.3c0.2,4.1,0.3,8.2,0.3,12.4c0,53.9-15,106.5-43.5,151.9
	c-12,19.1-6.2,44.4,13,56.4c6.7,4.2,14.2,6.2,21.7,6.2c13.6,0,26.9-6.8,34.7-19.2c5.2-8.4,10.1-17,14.6-25.7c18,7,82.4,30.4,90.8,11
	c7.5-17.4-45.6-46.1-70.3-58.4c9.1-26,15.3-52.9,18.4-80.4H893.3z"/>
<path class="st0" d="M411,585.7l93.4,176.9c3.1,6.8,10,11.3,17.6,11.3c7.5,0,14.4-4.4,17.6-11.3l93.4-176.9c1.8-3.8,2.2-8,1.3-12
	c0.7-3.5,0.5-7.1-0.7-10.5l-93.4-284.9c-2.8-7.6-10.1-12.8-18.2-12.8c-8.1,0-15.4,5.1-18.2,12.8l-93.4,284.9
	c-1.2,3.4-1.5,7-0.7,10.5C408.9,577.7,409.3,581.9,411,585.7 M561.5,554.2l-36.9,80.2c-0.5,1-1.5,1.7-2.6,1.7
	c-1.1,0-2.1-0.7-2.6-1.7l-36.9-80.2c-0.3-0.7-0.3-1.5-0.1-2.2l36.9-128.4c0.4-1.1,1.5-1.9,2.7-1.9c1.2,0,2.3,0.8,2.7,1.9L561.6,552
	C561.8,552.7,561.8,553.5,561.5,554.2"/>
</svg>
