<?xml version="1.0" encoding="utf-8"?>
<!-- Generator: Adobe Illustrator 25.4.1, SVG Export Plug-In . SVG Version: 6.00 Build 0)  -->
<svg version="1.1" id="Layer_1" xmlns="http://www.w3.org/2000/svg" xmlns:xlink="http://www.w3.org/1999/xlink" x="0px" y="0px"
	 viewBox="0 0 1947.5 1358.6" style="enable-background:new 0 0 1947.5 1358.6;" xml:space="preserve">
<style type="text/css">
	.st0{fill:#FF9900;}
	.st1{fill:#FFFFFF;}
	.st2{fill:#2D251E;}
	.st3{clip-path:url(#SVGID_00000035518594529547426810000012483456129948009403_);}
	.st4{clip-path:url(#SVGID_00000009563421887618218140000005619381027568821130_);}
	.st5{clip-path:url(#SVGID_00000088848320610396660510000000855468036653808796_);}
	.st6{clip-path:url(#SVGID_00000078008130069218372720000010790512249461261702_);}
	.st7{opacity:0.4;fill:#FF9900;}
</style>
<path class="st1" d="M1049,678.6c-24.2,15.5-52.2,23.6-81,23.6c-41.2,0-80.3-16.8-108.6-46.4c0-0.1,0-0.1,0-0.1
	c-12.8-13.3-23.1-29-30.3-46.3c0,0.1-0.1,0.1-0.1,0.1c-0.3-0.7-0.6-1.5-0.9-2.2c-7.1-17.7-10.6-36.4-10.6-55.6
	c0-28.8,8.2-56.9,23.7-81c6.4-10,3.5-23.2-6.5-29.6c-10-6.4-23.2-3.5-29.6,6.5c-3.2,4.9-6.1,10-8.7,15.2c-9.4-3.7-43.2-16-47.6-5.8
	c-3.9,9.1,23.9,24.2,36.9,30.6c-4.8,13.6-8,27.8-9.7,42.2h-2.7c0,0-77.9,1.2-77.9,21.9c0,17.8,63,21.3,80.5,21.9
	c1.4,12.5,4,24.8,7.8,36.7c-9.3,4.1-41.8,19.3-37.7,29.6c3.7,9.3,34,0.2,47.8-4.4c6.3,13,13.9,25.3,23,36.7l-1.9,1.9
	c0,0-54.2,55.9-39.6,70.5c12.6,12.6,59.6-29.5,72.4-41.5c9.8,7.8,20.4,14.7,31.5,20.4c-3.7,9.4-16,43.2-5.8,47.6
	c9.1,3.9,24.2-23.9,30.6-36.9c13.6,4.8,27.7,8,42.2,9.7v2.7c0,0,1.2,77.9,21.9,77.9c17.8,0,21.3-63,21.9-80.5
	c12.5-1.4,24.8-4,36.7-7.8c4.1,9.2,19.3,41.9,29.6,37.8c9.3-3.7,0.2-34-4.4-47.7c7-3.4,13.9-7.2,20.5-11.4
	c10-6.4,12.9-19.7,6.5-29.6C1072.2,675.2,1059,672.2,1049,678.6"/>
<path class="st1" d="M968.1,279.1c-17.8,0-21.3,63-21.9,80.5c-12.5,1.4-24.8,4-36.7,7.8c-4.1-9.3-19.3-41.9-29.6-37.8
	c-9.3,3.7-0.2,34,4.4,47.7c-6.4,3.1-12.7,6.5-18.8,10.3c-10,6.3-13.1,19.5-6.8,29.6c6.3,10,19.5,13.1,29.6,6.8
	c23.9-14.9,51.4-22.8,79.7-22.8c52.5,0,101.3,27.5,128.5,72.2c0,0.1,0,0.1,0,0.2c12.8,21.1,20.6,45.5,21.7,71.7
	c0-0.1,0.1-0.1,0.1-0.2c0.1,2.2,0.1,4.3,0.1,6.5c0,28.3-7.9,55.9-22.8,79.7c-6.3,10-3.2,23.3,6.8,29.6c3.5,2.2,7.5,3.3,11.4,3.3
	c7.1,0,14.1-3.6,18.2-10.1c2.8-4.4,5.3-8.9,7.7-13.5c9.4,3.7,43.2,16,47.6,5.8c3.9-9.1-23.9-24.2-36.9-30.6
	c4.8-13.6,8-27.8,9.7-42.2h2.7c0,0,77.9-1.2,77.9-21.9c0-17.8-63-21.3-80.6-21.9c-1.4-12.5-4-24.8-7.8-36.7
	c9.2-4.1,41.9-19.3,37.8-29.6c-3.7-9.3-34-0.2-47.7,4.4c-1.8-3.7-3.6-7.3-5.6-10.8c0,0,0,0,0,0c-5.1-9.1-11-17.8-17.4-25.8l1.9-1.9
	c0,0,54.2-55.9,39.6-70.5c-12.6-12.6-59.7,29.6-72.5,41.5c-9.8-7.8-20.3-14.6-31.5-20.4c3.6-9.3,16-43.3,5.8-47.7
	c-9.2-4-24.2,24-30.6,36.9c-13.5-4.8-27.7-8-42.2-9.7V357C989.9,357,988.7,279.1,968.1,279.1"/>
<path class="st1" d="M909.8,586.4l49,92.8c1.7,3.6,5.3,5.9,9.2,5.9c3.9,0,7.6-2.3,9.2-5.9l49-92.8c0.9-2,1.2-4.2,0.7-6.3
	c0.4-1.8,0.3-3.7-0.4-5.5l-49-149.5c-1.4-4-5.3-6.7-9.5-6.7c-4.3,0-8.1,2.7-9.5,6.7l-49,149.5c-0.7,1.8-0.8,3.7-0.4,5.5
	C908.6,582.3,908.9,584.4,909.8,586.4 M988.7,569.9L969.3,612c-0.2,0.5-0.8,0.9-1.4,0.9c-0.6,0-1.1-0.3-1.4-0.9l-19.4-42.1
	c-0.2-0.4-0.2-0.8,0-1.1l19.4-67.4c0.2-0.6,0.8-1,1.4-1c0.6,0,1.2,0.4,1.4,1l19.4,67.4C988.9,569.1,988.9,569.5,988.7,569.9"/>
<g>
	<path class="st1" d="M192.5,1069.9v-1.5c6.3-1.2,11.2-3.7,14.6-7.7c3.4-3.9,5.7-9.8,6.7-17.6c1.8-13.1,2.7-27,2.7-41.9
		c0-25.2-0.3-43.6-1-55.3c-32.6,0-51.7,7.5-57.4,22.5h-1.9l6.6-37.6h1.9c0.9,0.9,8.8,1.7,23.6,2.3c14.8,0.6,28,1,39.7,1
		c13.8,0,28.7-0.3,44.7-1c16-0.6,24.5-1.6,25.5-2.7h1.9v38h-1.6c-2.3-8-8.9-13.8-19.8-17.3c-10.9-3.5-23.7-5.1-38.6-4.9
		c-0.9,16.9-1.4,35.2-1.4,54.9c0,13.5,0.9,27.4,2.7,41.9c0.9,7,3.2,12.6,7,17c3.7,4.3,8.5,7.1,14.4,8.2v1.5c-19.4-0.6-31-1-34.9-1
		C223.7,1069,211.9,1069.3,192.5,1069.9"/>
	<path class="st1" d="M362,993.3c9.6,0.4,23.9,0.6,43.1,0.6c14.9,0,29.7-0.2,44.6-0.6c-0.3-14.9-1-26.4-2.3-34.5
		c-2.5-15-9.7-23.5-21.7-25.4v-1.6c13.2,0.8,25,1.2,35.3,1.2c15.6,0,27.4-0.4,35.1-1.2v1.6c-5.2,1.4-9.7,4.5-13.7,9.1
		c-3.9,4.7-6.5,10.1-7.7,16.3c-1.8,10.2-2.7,24.1-2.7,41.7c0,15.4,0.9,29.2,2.7,41.3c1.9,12.8,9.1,21.2,21.3,25.2v1.5
		c-11-0.6-22.7-1-35.1-1c-5.4,0-17.2,0.3-35.3,1v-1.5c12.2-2.5,19.4-10.9,21.7-25.2c1.6-9.8,2.3-22,2.3-36.7
		c-14.6-0.4-29.2-0.6-43.6-0.6c-4.4,0-9.1,0-14,0.1c-4.9,0.1-10.3,0.2-16.3,0.3c-5.9,0.1-10.5,0.2-13.8,0.2
		c0,12.4,0.9,24.6,2.7,36.7c1.9,12.7,9.1,21.1,21.3,25.2v1.5c-11.3-0.6-22.9-1-34.9-1c-5.6,0-17.4,0.3-35.5,1v-1.5
		c11.9-2.5,19-10.9,21.3-25.2c1.8-10.6,2.7-24.4,2.7-41.3c0-16.3-0.9-30.2-2.7-41.7c-2.2-15-9.3-23.5-21.3-25.4v-1.6
		c13.4,0.8,25.3,1.2,35.5,1.2c15.5,0,27.2-0.4,34.9-1.2v1.6c-5,1.4-9.6,4.5-13.6,9.1c-4,4.7-6.6,10.1-7.8,16.3
		C363.2,967.7,362.3,979.2,362,993.3"/>
	<path class="st1" d="M507.3,1069.4v-1.5c5.6-1,10.2-3.6,14.1-7.8c3.8-4.1,6.2-10,7.3-17.5c1.8-9.8,2.7-23.7,2.7-41.5
		c0-16.2-0.9-30-2.7-41.5c-2.2-14.7-9.3-23.2-21.3-25.4v-1.6h65.4c20.8,0,35.2-0.5,43.1-1.6c-0.9,9.4-0.9,19.9,0,31.4h-1.6
		c-1.9-8.3-5.4-13.6-10.3-16.1c-4.9-2.5-14.2-3.7-27.7-3.7l-19.8,0.4c-1.7,14.1-2.5,31-2.5,50.6h17.3c11.3,0,19-0.6,23.3-1.9
		c4.3-1.3,7.3-4,9.1-8.1h1.6c-1.3,13.1-1.3,25,0,35.9h-1.6c-2.6-10.1-13.8-15.1-33.8-15.1h-15.9c0,14.9,0.5,27.7,1.6,38.6
		c0.5,6.9,2,11.3,4.5,13.3c2.5,2,8.3,3,17.7,3c19.7,0.1,34.6-6.7,44.8-20.6h1.9c-4.5,9.4-7.8,19.7-9.9,30.6H507.3z"/>
	<path class="st1" d="M777.5,996.5c16,0,28.5,3.7,37.5,11.1c9,7.4,13.5,15.4,13.5,24.1c0,10.9-5,19.9-15,27
		c-10,7.1-21.1,10.6-33.3,10.5c-4.4,0-11.2-0.3-20.5-0.8c-9.2-0.5-16.4-0.8-21.4-0.8c-7.9,0-19.6,0.4-35.1,1.2v-1.4
		c11.9-2.5,19-10.9,21.3-25.4c1.8-10.6,2.7-24.4,2.7-41.3c0-16.3-0.9-30.2-2.7-41.7c-2.2-15-9.3-23.5-21.3-25.4v-1.6
		c11.4,0.8,21.8,1.2,31.2,1.2c3.9,0,10.1-0.3,18.5-0.9c8.5-0.6,14.6-0.9,18.3-0.9c12.7,0,23.5,3,32.4,8.9c8.9,5.9,13.6,14.2,14,24.8
		c0.3,6.9-2.9,13.5-9.6,19.9C801.4,991.4,791.2,995.2,777.5,996.5 M765.1,942.2c-4.7,0-8.9,0.3-12.8,1c-1.8,14.5-2.7,30.8-2.7,48.9
		h5.4c12.7,0,22.6-2.3,29.8-7c7.2-4.7,10.8-11.1,10.8-19.4c0-6.2-2.7-11.7-8.2-16.4C781.8,944.6,774.4,942.2,765.1,942.2
		 M765.5,1002.7h-15.9c0,22.5,0.5,37.4,1.4,44.6c0.6,4.9,1.9,8.1,3.8,9.4c1.9,1.4,5.1,2,9.6,2c11.9,0,21.6-2.4,29.1-7.3
		c7.5-4.8,11.3-12.1,11.3-21.8c0-6.9-3.5-13.1-10.4-18.6C787.4,1005.5,777.8,1002.7,765.5,1002.7"/>
	<path class="st1" d="M929.6,1010c-13.2-29.6-20.4-48-21.7-55.3l-21.7,55.7l-4.9,11.3c-4.7,11.9-8.2,21.4-10.7,28.5
		c-1.9,5.2-2.1,9.1-0.6,11.6c1.6,2.6,5.6,4.3,12,5.2v1.6c-18.8-1-37.1-1-54.9,0v-1.6c11.8-0.8,21.7-9.1,29.7-25
		c14.1-27.7,30-64.4,47.7-110.2h14c22.8,50.2,40.1,86.9,52,110.2c3.9,7.9,7.8,13.9,11.8,18c4,4.1,9.2,6.5,15.7,7v1.6
		c-2.8,0-7.7-0.2-14.5-0.6c-6.9-0.4-12.2-0.6-16.1-0.6c-3.5,0-8.7,0.2-15.5,0.6c-6.9,0.4-11.8,0.6-14.7,0.6v-1.6
		c5.2-0.8,8.3-2.7,9.5-5.9c1.2-3.2,0.6-7.4-1.6-12.7c-1.3-3.9-4.8-12.9-10.7-27.2"/>
	<path class="st1" d="M1115.7,1068.6h-110v-1.5c5.9-1.3,10.7-4.2,14.4-8.8c3.6-4.6,5.9-10.1,7-16.4c1.8-11.2,2.7-25.2,2.7-41.9
		c0-14.7-0.9-28.4-2.7-41.1c-1-7-3.1-12.5-6.2-16.7c-3.1-4.1-8.1-7-15.1-8.7v-1.6c7.9,0.5,19.7,0.8,35.5,0.8
		c17.6,0,30.2-0.3,37.8-0.8v1.6c-6.2,0.8-11.5,3.4-15.8,7.9c-4.3,4.5-7.1,10.3-8.4,17.6c-1.8,10.3-2.7,24.1-2.7,41.1
		c0,18.1,0.8,33.5,2.3,46.2c0.6,5.2,3,8.6,7.1,10.2c4.1,1.6,9.9,2.4,17.6,2.4c19.9,0,34.7-6.9,44.4-20.8h2.1
		C1121,1047.4,1117.7,1057.6,1115.7,1068.6"/>
	<path class="st1" d="M1306.5,1068.6v-1.5c6.6-1.7,11.5-4.4,14.6-8.2c3.2-3.7,5.4-9.4,6.7-16.9c1.3-7.6,2.1-21.7,2.3-42.1
		c0.1-6.7,0.1-13.9,0-21.4c-0.1-7.6-0.3-16-0.6-25.2c-0.3-9.2-0.5-16.4-0.6-21.4h21.7c4.4,4.6,12.6,12.8,24.6,24.6
		c12,11.7,22.3,21.8,30.9,30.2c23.2,21.3,41.6,39.3,55.1,53.9c0.3-40.2-0.3-67.4-1.6-81.7c-1.3-14.5-9.7-23-25.2-25.3v-1.6
		c16.3,0.8,27.3,1.2,33,1.2c11,0,21.1-0.4,30.5-1.2v1.6c-7,1.8-12.1,4.8-15.3,8.9c-3.2,4.1-5.2,9.6-6,16.5c-1,9.1-1.6,26-1.6,50.8
		c0,21.2,0.6,40.9,1.7,59h-21c-28.4-28.5-49.3-48.8-62.7-60.9c-9.3-9-19.1-18.5-29.4-28.6c-10.3-10-17.3-17.3-20.8-21.6
		c0,19,0.1,33.2,0.4,42.7c0.1,3,0.2,7.4,0.3,13.3c0.1,5.9,0.2,11.1,0.4,15.6c0.2,4.5,0.6,8.9,1.3,13c2.1,14,11.5,22.3,28.3,25v1.5
		c-11.6-0.4-23.4-0.6-35.3-0.6C1324,1068,1313.4,1068.2,1306.5,1068.6"/>
	<path class="st1" d="M1514.1,999.6c0-8.7,2.2-17.2,6.7-25.6c4.5-8.4,10.6-16,18.5-22.9c7.9-6.9,18-12.4,30.3-16.6
		c12.3-4.2,25.6-6.3,40-6.3c12.8,0,27.7,2.1,44.6,6.2c-1.9,11.6-2.8,23.7-2.5,36.1h-1.6c-2.1-11.6-7.2-19.8-15.4-24.4
		c-8.2-4.7-19-7-32.3-7c-16.8,0-31.1,6.1-43,18.4c-11.8,12.3-17.7,26.3-17.7,42.1c0,16.6,6.6,31.1,19.9,43.7
		c13.3,12.6,28.2,18.9,44.7,18.9c28.3,0,45.7-10.6,52-31.8h1.9c-3.9,13.1-6.2,24.5-7,34.3c-16.8,4.7-34.3,7.1-52.6,7.4
		c-24.3,0.3-44.8-6.6-61.5-20.7C1522.4,1037.5,1514.1,1020.2,1514.1,999.6"/>
	<path class="st1" d="M1674.3,1069.4v-1.5c5.6-1,10.2-3.6,14.1-7.8c3.8-4.1,6.2-10,7.3-17.5c1.8-9.8,2.7-23.7,2.7-41.5
		c0-16.2-0.9-30-2.7-41.5c-2.2-14.7-9.3-23.2-21.3-25.4v-1.6h65.4c20.8,0,35.2-0.5,43.1-1.6c-0.9,9.4-0.9,19.9,0,31.4h-1.6
		c-1.9-8.3-5.4-13.6-10.3-16.1c-4.9-2.5-14.2-3.7-27.7-3.7l-19.8,0.4c-1.7,14.1-2.5,31-2.5,50.6h17.3c11.3,0,19-0.6,23.3-1.9
		c4.3-1.3,7.3-4,9.1-8.1h1.6c-1.3,13.1-1.3,25,0,35.9h-1.6c-2.6-10.1-13.8-15.1-33.8-15.1h-15.9c0,14.9,0.5,27.7,1.6,38.6
		c0.5,6.9,2,11.3,4.5,13.3c2.5,2,8.3,3,17.7,3c19.7,0.1,34.6-6.7,44.8-20.6h1.9c-4.5,9.4-7.8,19.7-9.9,30.6H1674.3z"/>
	<polygon class="st1" points="909.4,1012.7 892.8,1046.1 908.5,1079.5 925.1,1046.1 	"/>
	<path class="st1" d="M1228,1010c-13.2-29.6-20.4-48-21.7-55.3l-21.7,55.7l-4.9,11.3c-4.7,11.9-8.2,21.4-10.7,28.5
		c-1.9,5.2-2.1,9.1-0.6,11.6c1.6,2.6,5.6,4.3,12,5.2v1.6c-18.8-1-37.1-1-54.9,0v-1.6c11.8-0.8,21.7-9.1,29.7-25
		c14.1-27.7,30-64.4,47.7-110.2h14c22.8,50.2,40.1,86.9,52,110.2c3.9,7.9,7.8,13.9,11.8,18c4,4.1,9.2,6.5,15.7,7v1.6
		c-2.8,0-7.7-0.2-14.5-0.6c-6.9-0.4-12.2-0.6-16.1-0.6c-3.5,0-8.7,0.2-15.5,0.6c-6.9,0.4-11.8,0.6-14.7,0.6v-1.6
		c5.2-0.8,8.3-2.7,9.5-5.9c1.2-3.2,0.6-7.4-1.6-12.7c-1.3-3.9-4.8-12.9-10.7-27.2"/>
	<polygon class="st1" points="1207.8,1012.7 1191.1,1046.1 1206.8,1079.5 1223.4,1046.1 	"/>
	<polygon class="st1" points="1603.1,966.8 1586.5,1000.2 1602.2,1033.6 1618.8,1000.2 	"/>
</g>
</svg>
