<?xml version="1.0" encoding="utf-8"?>
<!-- Generator: Adobe Illustrator 25.4.1, SVG Export Plug-In . SVG Version: 6.00 Build 0)  -->
<svg version="1.1" id="Layer_1" xmlns="http://www.w3.org/2000/svg" xmlns:xlink="http://www.w3.org/1999/xlink" x="0px" y="0px"
	 viewBox="0 0 1947.5 1358.6" style="enable-background:new 0 0 1947.5 1358.6;" xml:space="preserve">
<style type="text/css">
	.st0{fill:#FF9900;}
	.st1{fill:#FFFFFF;}
	.st2{fill:#2D251E;}
	.st3{clip-path:url(#SVGID_00000112600680420031919580000010021580756734364349_);}
	.st4{clip-path:url(#SVGID_00000150808935191692192320000001877705958890667656_);}
	.st5{clip-path:url(#SVGID_00000157310072843087324840000004009419537649070261_);}
	.st6{clip-path:url(#SVGID_00000100379963084793282820000002320954500567542682_);}
	.st7{opacity:0.4;fill:#FF9900;}
</style>
<g>
	<path class="st0" d="M400.3,775.4c-18.3,11.7-39.5,17.9-61.4,17.9c-31.2,0-60.8-12.7-82.3-35.1c0,0,0-0.1,0-0.1
		c-9.7-10.1-17.5-22-22.9-35.1c0,0,0,0.1-0.1,0.1c-0.2-0.6-0.5-1.1-0.7-1.7c-5.3-13.4-8-27.6-8-42.2c0-21.8,6.2-43.1,17.9-61.4
		c4.8-7.6,2.6-17.6-4.9-22.4c-7.6-4.8-17.6-2.6-22.4,4.9c-2.4,3.7-4.6,7.6-6.6,11.5c-7.1-2.8-32.8-12.1-36.1-4.4
		c-3,6.9,18.1,18.3,28,23.2c-3.6,10.3-6.1,21-7.3,32h-2c0,0-59,0.9-59,16.6c0,13.5,47.7,16.1,61,16.6c1.1,9.5,3,18.7,5.9,27.8
		c-7,3.1-31.7,14.6-28.6,22.4c2.8,7,25.8,0.1,36.2-3.4c4.7,9.9,10.6,19.2,17.4,27.8l-1.4,1.4c0,0-41.1,42.4-30,53.4
		c9.5,9.5,45.1-22.4,54.9-31.4c7.5,5.9,15.4,11.1,23.8,15.5c-2.8,7.1-12.1,32.8-4.4,36.1c6.9,3,18.3-18.1,23.2-28
		c10.3,3.6,21,6.1,32,7.3v2c0,0,0.9,59,16.6,59c13.5,0,16.1-47.7,16.6-61c9.5-1.1,18.8-3.1,27.8-5.9c3.1,7,14.6,31.7,22.4,28.6
		c7-2.8,0.2-25.8-3.4-36.2c5.3-2.6,10.5-5.4,15.5-8.6c7.6-4.8,9.8-14.9,4.9-22.4C417.9,772.7,407.8,770.5,400.3,775.4"/>
	<path class="st0" d="M339,472.7c-13.5,0-16.1,47.7-16.6,61c-9.5,1.1-18.8,3-27.8,5.9c-3.1-7-14.6-31.7-22.4-28.6
		c-7,2.8-0.2,25.8,3.4,36.2c-4.9,2.3-9.6,4.9-14.3,7.8c-7.6,4.8-9.9,14.8-5.2,22.4c4.8,7.6,14.8,9.9,22.4,5.2
		c18.1-11.3,38.9-17.3,60.4-17.3c39.8,0,76.7,20.9,97.4,54.7c0,0.1,0,0.1,0,0.2c9.7,16,15.6,34.5,16.4,54.4c0,0,0.1-0.1,0.1-0.1
		c0.1,1.6,0.1,3.3,0.1,4.9c0,21.4-6,42.3-17.3,60.4c-4.8,7.6-2.5,17.6,5.2,22.4c2.7,1.7,5.7,2.5,8.6,2.5c5.4,0,10.7-2.7,13.8-7.6
		c2.1-3.3,4-6.8,5.8-10.2c7.1,2.8,32.8,12.1,36.1,4.4c3-6.9-18.1-18.3-28-23.2c3.6-10.3,6.1-21,7.3-32h2c0,0,59-0.9,59-16.6
		c0-13.5-47.8-16.1-61-16.6c-1.1-9.4-3.1-18.8-5.9-27.8c7-3.1,31.7-14.6,28.6-22.4c-2.8-7-25.8-0.2-36.2,3.4
		c-1.3-2.8-2.7-5.5-4.3-8.2c0,0,0,0,0,0c-3.9-6.9-8.3-13.5-13.2-19.6l1.4-1.4c0,0,41.1-42.4,30-53.4c-9.5-9.5-45.2,22.4-54.9,31.4
		c-7.4-5.9-15.4-11.1-23.8-15.4c2.7-7.1,12.1-32.8,4.4-36.1c-6.9-3-18.4,18.2-23.2,28c-10.3-3.6-21-6.1-31.9-7.4v-2
		C355.5,531.7,354.6,472.7,339,472.7"/>
	<path class="st0" d="M294.8,705.5l37.1,70.3c1.3,2.7,4,4.5,7,4.5c3,0,5.7-1.8,7-4.5l37.1-70.3c0.7-1.5,0.9-3.2,0.5-4.8
		c0.3-1.4,0.2-2.8-0.3-4.2l-37.1-113.2c-1.1-3-4-5.1-7.2-5.1c-3.2,0-6.1,2-7.2,5.1l-37.1,113.2c-0.5,1.4-0.6,2.8-0.3,4.2
		C293.9,702.4,294.1,704,294.8,705.5 M354.6,693l-14.7,31.9c-0.2,0.4-0.6,0.7-1,0.7c-0.4,0-0.8-0.3-1-0.7L323.2,693
		c-0.1-0.3-0.1-0.6,0-0.9l14.7-51c0.2-0.5,0.6-0.8,1.1-0.8c0.5,0,0.9,0.3,1.1,0.8l14.7,51C354.7,692.4,354.7,692.7,354.6,693"/>
</g>
<g>
	<path class="st0" d="M604,729.4v-1.2c4.8-0.9,8.5-2.8,11.1-5.8c2.6-3,4.3-7.4,5.1-13.3c1.4-9.9,2.1-20.5,2.1-31.7
		c0-19.1-0.2-33.1-0.7-41.9c-24.7,0-39.2,5.7-43.5,17h-1.5l5-28.5h1.5c0.7,0.7,6.6,1.3,17.9,1.8c11.2,0.5,21.2,0.7,30.1,0.7
		c10.5,0,21.8-0.2,33.9-0.7c12.1-0.5,18.5-1.2,19.3-2.1h1.5v28.8h-1.2c-1.8-6.1-6.8-10.4-15-13.1c-8.2-2.6-18-3.9-29.2-3.7
		c-0.7,12.8-1,26.7-1,41.6c0,10.2,0.7,20.8,2.1,31.7c0.7,5.3,2.4,9.6,5.3,12.9c2.8,3.3,6.5,5.4,10.9,6.2v1.2
		c-14.7-0.5-23.5-0.7-26.5-0.7C627.7,728.6,618.7,728.9,604,729.4"/>
	<path class="st0" d="M732.4,671.3c7.2,0.3,18.1,0.4,32.6,0.4c11.3,0,22.5-0.1,33.8-0.4c-0.2-11.3-0.8-20-1.8-26.2
		c-1.9-11.4-7.3-17.8-16.5-19.3v-1.2c10,0.6,18.9,0.9,26.7,0.9c11.9,0,20.7-0.3,26.6-0.9v1.2c-3.9,1.1-7.4,3.4-10.4,6.9
		c-3,3.5-4.9,7.6-5.8,12.3c-1.4,7.7-2.1,18.3-2.1,31.6c0,11.7,0.7,22.1,2.1,31.3c1.5,9.7,6.9,16.1,16.2,19.1v1.2
		c-8.3-0.5-17.2-0.7-26.6-0.7c-4.1,0-13,0.2-26.7,0.7v-1.2c9.2-1.9,14.7-8.2,16.5-19.1c1.2-7.4,1.8-16.7,1.8-27.8
		c-11.1-0.3-22.1-0.4-33.1-0.4c-3.3,0-6.9,0-10.6,0.1c-3.7,0.1-7.8,0.1-12.3,0.2c-4.5,0.1-8,0.1-10.4,0.1c0,9.4,0.7,18.7,2.1,27.8
		c1.5,9.6,6.9,16,16.2,19.1v1.2c-8.5-0.5-17.3-0.7-26.5-0.7c-4.2,0-13.2,0.2-26.9,0.7v-1.2c9-1.9,14.4-8.2,16.2-19.1
		c1.4-8,2.1-18.5,2.1-31.3c0-12.3-0.7-22.9-2.1-31.6c-1.7-11.4-7.1-17.8-16.2-19.3v-1.2c10.2,0.6,19.2,0.9,26.9,0.9
		c11.8,0,20.6-0.3,26.5-0.9v1.2c-3.8,1.1-7.3,3.4-10.3,6.9c-3,3.5-5,7.6-5.9,12.3C733.3,651.9,732.6,660.6,732.4,671.3"/>
	<path class="st0" d="M842.5,728.9v-1.2c4.2-0.8,7.8-2.7,10.7-5.9c2.9-3.1,4.7-7.5,5.5-13.2c1.4-7.4,2.1-17.9,2.1-31.4
		c0-12.2-0.7-22.7-2.1-31.4c-1.7-11.2-7.1-17.6-16.2-19.3v-1.2H892c15.8,0,26.6-0.4,32.6-1.2c-0.7,7.2-0.7,15.1,0,23.8h-1.2
		c-1.5-6.3-4.1-10.3-7.8-12.2c-3.7-1.9-10.7-2.8-21-2.8l-15,0.3c-1.3,10.7-1.9,23.5-1.9,38.4h13.1c8.5,0,14.4-0.5,17.6-1.5
		c3.2-1,5.5-3,6.9-6.2h1.2c-1,9.9-1,19,0,27.2h-1.2c-2-7.6-10.5-11.5-25.6-11.5h-12.1c0,11.3,0.4,21,1.2,29.2
		c0.4,5.2,1.5,8.5,3.4,10.1c1.9,1.5,6.3,2.3,13.4,2.3c14.9,0.1,26.2-5.1,33.9-15.6h1.5c-3.4,7.2-5.9,14.9-7.5,23.2H842.5z"/>
	<path class="st0" d="M1047.2,673.7c12.1,0,21.6,2.8,28.4,8.4c6.8,5.6,10.2,11.7,10.2,18.2c0,8.2-3.8,15-11.4,20.4
		c-7.6,5.4-16,8-25.2,7.9c-3.3,0-8.5-0.2-15.5-0.6c-7-0.4-12.4-0.6-16.2-0.6c-6,0-14.8,0.3-26.6,0.9v-1c9-1.9,14.4-8.3,16.2-19.3
		c1.4-8,2.1-18.5,2.1-31.3c0-12.3-0.7-22.9-2.1-31.6c-1.7-11.4-7.1-17.8-16.2-19.3v-1.2c8.6,0.6,16.5,0.9,23.7,0.9
		c2.9,0,7.6-0.2,14-0.7c6.4-0.4,11-0.7,13.9-0.7c9.6,0,17.8,2.3,24.5,6.8c6.8,4.5,10.3,10.8,10.6,18.8c0.2,5.2-2.2,10.2-7.3,15.1
		C1065.3,669.8,1057.6,672.8,1047.2,673.7 M1037.8,632.6c-3.5,0-6.8,0.2-9.7,0.7c-1.4,11-2.1,23.3-2.1,37h4.1
		c9.6,0,17.1-1.8,22.6-5.3c5.4-3.5,8.2-8.4,8.2-14.7c0-4.7-2.1-8.8-6.2-12.4C1050.5,634.4,1044.9,632.6,1037.8,632.6 M1038.1,678.4
		H1026c0,17,0.3,28.3,1,33.8c0.5,3.7,1.4,6.1,2.9,7.1c1.4,1,3.8,1.5,7.3,1.5c9,0,16.4-1.8,22-5.5c5.7-3.7,8.5-9.2,8.5-16.5
		c0-5.2-2.6-9.9-7.9-14.1C1054.7,680.6,1047.4,678.4,1038.1,678.4"/>
	<path class="st0" d="M1162.4,684c-10-22.4-15.5-36.4-16.5-41.9l-16.5,42.2l-3.7,8.5c-3.5,9-6.2,16.2-8.1,21.6
		c-1.5,3.9-1.6,6.9-0.4,8.8c1.2,2,4.2,3.3,9.1,4v1.2c-14.2-0.8-28.1-0.8-41.6,0v-1.2c8.9-0.6,16.4-6.9,22.5-19
		c10.7-21,22.7-48.8,36.1-83.5h10.6c17.2,38,30.4,65.8,39.4,83.5c2.9,6,5.9,10.5,9,13.7c3,3.1,7,4.9,11.9,5.3v1.2
		c-2.2,0-5.8-0.1-11-0.4c-5.2-0.3-9.3-0.4-12.2-0.4c-2.6,0-6.6,0.1-11.8,0.4c-5.2,0.3-8.9,0.4-11.2,0.4v-1.2
		c3.9-0.6,6.3-2.1,7.2-4.5c0.9-2.4,0.5-5.6-1.2-9.6c-1-2.9-3.7-9.8-8.1-20.6"/>
	<path class="st0" d="M1303.3,728.3H1220v-1.2c4.5-1,8.1-3.2,10.9-6.7c2.7-3.5,4.5-7.6,5.3-12.4c1.4-8.5,2.1-19.1,2.1-31.7
		c0-11.2-0.7-21.6-2.1-31.2c-0.8-5.3-2.4-9.5-4.7-12.6c-2.4-3.1-6.2-5.3-11.5-6.6v-1.2c6,0.4,14.9,0.6,26.9,0.6
		c13.3,0,22.9-0.2,28.7-0.6v1.2c-4.7,0.6-8.7,2.6-12,6c-3.3,3.4-5.4,7.8-6.4,13.3c-1.4,7.8-2.1,18.2-2.1,31.2
		c0,13.7,0.6,25.4,1.8,35c0.5,3.9,2.3,6.5,5.4,7.7c3.1,1.2,7.5,1.8,13.3,1.8c15.1,0,26.3-5.2,33.7-15.7h1.6
		C1307.4,712.3,1304.9,720,1303.3,728.3"/>
	<path class="st0" d="M1447.9,728.3v-1.2c5-1.3,8.7-3.3,11.1-6.2c2.4-2.8,4.1-7.1,5.1-12.8c1-5.8,1.6-16.4,1.8-31.9
		c0.1-5.1,0.1-10.5,0-16.2c-0.1-5.7-0.2-12.1-0.4-19.1c-0.2-7-0.3-12.4-0.4-16.2h16.5c3.3,3.5,9.5,9.7,18.6,18.6
		c9.1,8.9,16.9,16.5,23.4,22.9c17.6,16.1,31.5,29.7,41.7,40.8c0.2-30.4-0.2-51.1-1.2-61.9c-1-11-7.3-17.4-19.1-19.2v-1.2
		c12.3,0.6,20.7,0.9,25,0.9c8.3,0,16-0.3,23.1-0.9v1.2c-5.3,1.4-9.2,3.6-11.6,6.8c-2.5,3.1-4,7.3-4.6,12.5
		c-0.8,6.9-1.2,19.7-1.2,38.5c0,16.1,0.4,31,1.3,44.7h-15.9c-21.5-21.6-37.3-37-47.5-46.2c-7-6.8-14.4-14-22.3-21.7
		c-7.8-7.6-13.1-13.1-15.7-16.4c0,14.4,0.1,25.2,0.3,32.3c0.1,2.3,0.2,5.6,0.2,10.1c0,4.5,0.1,8.4,0.3,11.8c0.1,3.4,0.5,6.7,1,9.8
		c1.6,10.6,8.7,16.9,21.5,19v1.2c-8.8-0.3-17.7-0.4-26.7-0.4C1461.2,727.9,1453.1,728,1447.9,728.3"/>
	<path class="st0" d="M1605.2,676.1c0-6.6,1.7-13,5.1-19.4c3.4-6.4,8.1-12.1,14-17.3c6-5.2,13.6-9.4,22.9-12.6
		c9.3-3.2,19.4-4.8,30.3-4.8c9.7,0,21,1.6,33.8,4.7c-1.5,8.8-2.1,17.9-1.9,27.3h-1.2c-1.6-8.8-5.5-15-11.7-18.5
		c-6.2-3.5-14.4-5.3-24.5-5.3c-12.7,0-23.6,4.7-32.5,14c-9,9.3-13.4,19.9-13.4,31.9c0,12.5,5,23.6,15.1,33.1
		c10,9.6,21.3,14.3,33.9,14.3c21.5,0,34.6-8,39.4-24.1h1.5c-2.9,9.9-4.7,18.6-5.3,26c-12.7,3.5-26,5.4-39.8,5.6
		c-18.4,0.2-33.9-5-46.6-15.7C1611.5,704.8,1605.2,691.7,1605.2,676.1"/>
	<path class="st0" d="M1726.6,728.9v-1.2c4.2-0.8,7.8-2.7,10.7-5.9c2.9-3.1,4.7-7.5,5.5-13.2c1.4-7.4,2.1-17.9,2.1-31.4
		c0-12.2-0.7-22.7-2.1-31.4c-1.7-11.2-7.1-17.6-16.2-19.3v-1.2h49.5c15.8,0,26.6-0.4,32.6-1.2c-0.7,7.2-0.7,15.1,0,23.8h-1.2
		c-1.5-6.3-4.1-10.3-7.8-12.2c-3.7-1.9-10.7-2.8-21-2.8l-15,0.3c-1.3,10.7-1.9,23.5-1.9,38.4h13.1c8.5,0,14.4-0.5,17.6-1.5
		c3.2-1,5.5-3,6.9-6.2h1.2c-1,9.9-1,19,0,27.2h-1.2c-2-7.6-10.5-11.5-25.6-11.5h-12c0,11.3,0.4,21,1.2,29.2
		c0.4,5.2,1.5,8.5,3.4,10.1c1.9,1.5,6.3,2.3,13.4,2.3c14.9,0.1,26.2-5.1,33.9-15.6h1.5c-3.4,7.2-5.9,14.9-7.5,23.2H1726.6z"/>
	<polygon class="st0" points="1147.1,686 1134.5,711.3 1146.4,736.6 1159,711.3 	"/>
	<path class="st0" d="M1388.4,684c-10-22.4-15.5-36.4-16.5-41.9l-16.5,42.2l-3.7,8.5c-3.5,9-6.2,16.2-8.1,21.6
		c-1.5,3.9-1.6,6.9-0.4,8.8c1.2,2,4.2,3.3,9.1,4v1.2c-14.2-0.8-28.1-0.8-41.6,0v-1.2c8.9-0.6,16.4-6.9,22.5-19
		c10.7-21,22.7-48.8,36.1-83.5h10.6c17.2,38,30.4,65.8,39.4,83.5c2.9,6,5.9,10.5,9,13.7c3,3.1,7,4.9,11.9,5.3v1.2
		c-2.2,0-5.8-0.1-11-0.4c-5.2-0.3-9.3-0.4-12.2-0.4c-2.6,0-6.6,0.1-11.8,0.4c-5.2,0.3-8.9,0.4-11.2,0.4v-1.2
		c3.9-0.6,6.3-2.1,7.2-4.5c0.9-2.4,0.5-5.6-1.2-9.6c-1-2.9-3.7-9.8-8.1-20.6"/>
	<polygon class="st0" points="1373.1,686 1360.5,711.3 1372.4,736.6 1385,711.3 	"/>
	<polygon class="st0" points="1672.6,651.2 1660,676.5 1671.9,701.8 1684.5,676.5 	"/>
</g>
<g>
	<defs>
		<circle id="SVGID_1_" cx="-1965.7" cy="2207.8" r="673.2"/>
	</defs>
	<clipPath id="SVGID_00000010990381202732356760000000001497876846477223_">
		<use xlink:href="#SVGID_1_"  style="overflow:visible;"/>
	</clipPath>
	<g style="clip-path:url(#SVGID_00000010990381202732356760000000001497876846477223_);">
		<defs>
			<rect id="SVGID_00000183233761949388286160000010231380419440035246_" x="-2639" y="1534.6" width="1381.8" height="1346.4"/>
		</defs>
		<clipPath id="SVGID_00000000944007391796642990000002201507051019199374_">
			<use xlink:href="#SVGID_00000183233761949388286160000010231380419440035246_"  style="overflow:visible;"/>
		</clipPath>
		<g style="clip-path:url(#SVGID_00000000944007391796642990000002201507051019199374_);">
			<defs>
				<rect id="SVGID_00000174561292243245993960000010963296240893954202_" x="-4795.7" y="1081.2" width="4857.4" height="2732.3"/>
			</defs>
			<clipPath id="SVGID_00000127031925148131988250000000366084186460601262_">
				<use xlink:href="#SVGID_00000174561292243245993960000010963296240893954202_"  style="overflow:visible;"/>
			</clipPath>
			<g style="clip-path:url(#SVGID_00000127031925148131988250000000366084186460601262_);">
				
					<image style="overflow:visible;" width="1920" height="1080" xlink:href="BF9CBE56.jpg"  transform="matrix(2.5299 0 0 2.5299 -4849.5991 1070.5199)">
				</image>
			</g>
		</g>
	</g>
</g>
</svg>
